HIERARCHY
ROOT pelvis
{
  OFFSET 0 100 0
  CHANNELS 6 Xposition Yposition Zposition Zrotation Xrotation Yrotation
  JOINT pelvis_right_femur
  {
    OFFSET -10.78128 -3.44521 -0.5502486
    CHANNELS 3 Zrotation Xrotation Yrotation
    JOINT right_femur_tibia
    {
      OFFSET -0.8047443 -44.0398 -0.1307829
      CHANNELS 3 Zrotation Xrotation Yrotation
      JOINT right_tibia_foot
      {
        OFFSET 3.006224 -47.83518 -5
        CHANNELS 3 Zrotation Xrotation Yrotation
        End Site
        {
          OFFSET 0 -5 15
        }
      }
    }
  }
  JOINT pelvis_left_femur
  {
    OFFSET 10.78128 -3.44521 -0.5502486
    CHANNELS 3 Zrotation Xrotation Yrotation
    JOINT left_femur_tibia
    {
      OFFSET 0.8047443 -44.0398 -0.1307829
      CHANNELS 3 Zrotation Xrotation Yrotation
      JOINT left_tibia_foot
      {
        OFFSET -4.370144 -48.10324 -4.275266
        CHANNELS 3 Zrotation Xrotation Yrotation
        End Site
        {
          OFFSET 0 -5 15
        }
      }
    }
  }
  JOINT pelvis_spine1
  {
    OFFSET 0 6.468898 -3.129235
    CHANNELS 3 Zrotation Xrotation Yrotation
    JOINT spine1
    {
      OFFSET 0 23.15396 4.99043
      CHANNELS 3 Zrotation Xrotation Yrotation
      JOINT spine2
      {
        OFFSET 0 20.79997 -5.064912
        CHANNELS 3 Zrotation Xrotation Yrotation
        JOINT neck
        {
          OFFSET 0 14.38658 9.616178
          CHANNELS 3 Zrotation Xrotation Yrotation
          End Site
          {
            OFFSET 0 20 0
          }
        }
      }
      JOINT right_manubrium
      {
        OFFSET -5.722621 16.35077 3.967754
        CHANNELS 3 Zrotation Xrotation Yrotation
        JOINT right_clavicle
        {
          OFFSET -13.16364 1.694482 -4.693211
          CHANNELS 3 Zrotation Xrotation Yrotation
          JOINT right_humerus
          {
            OFFSET -28.5034 -0.3100689 -2.792744
            CHANNELS 3 Zrotation Xrotation Yrotation
            JOINT right_radius
            {
              OFFSET -25.15693 0.02248979 -1.271978
              CHANNELS 3 Zrotation Xrotation Yrotation
              End Site
              {
                OFFSET -15 0 0
              }
            }
          }
        }
      }
      JOINT left_manubrium
      {
        OFFSET 5.722621 16.35077 3.967754
        CHANNELS 3 Zrotation Xrotation Yrotation
        JOINT left_clavicle
        {
          OFFSET 13.16364 1.694482 -4.693211
          CHANNELS 3 Zrotation Xrotation Yrotation
          JOINT left_humerus
          {
            OFFSET 29.39168 -1.063119 -2.237045
            CHANNELS 3 Zrotation Xrotation Yrotation
            JOINT left_radius
            {
              OFFSET 24.59957 -0.9528479 0.9047498
              CHANNELS 3 Zrotation Xrotation Yrotation
              End Site
              {
                OFFSET 15 -0 -0
              }
            }
          }
        }
      }
    }
  }
}
MOTION
Frames: 17
Frame Time: 0.0416666666667
0 103.5113 0 1.189466 -0.4778156 0.02302392 3.320759 -15.1808 10.38682 -0 38.60335 -0 -4.483284 -19.0601 -3.976432 -7.42152 10.27605 -23.87853 -0 5.557328 -0 10.89954 -15.43326 27.51773 -4.442385 -4.010397 4.503831 3.236484 9.312936 -7.936033 1.148183 22.164 6.859044 2.366572 -25.02631 9.898272 6.680858 -20.02274 11.87867 85.03734 36.75725 -18.52342 -0 0 16.35341 -6.593243 8.994936 5.150911 4.573017 -18.15912 -1.356606 -94.00495 27.23845 22.80151 0 0 -15.23538 6.851514 16.19694 5.87058
0.3222103 103.4984 1.441689 0.9790383 -0.5624124 0.08313789 3.440369 -16.31282 9.946425 -0 38.97006 -0 -5.102174 -17.51686 -3.811834 -7.226336 10.54066 -23.41351 -0 5.470943 -0 10.34173 -15.85869 27.06197 -4.232652 -3.744879 4.374634 3.109949 9.419349 -7.950983 1.141368 22.15362 6.932013 2.570693 -25.0078 9.789453 6.502544 -19.92532 11.82029 85.39497 36.37092 -18.75942 -0 0 16.03821 -6.803284 8.604126 5.09066 4.774935 -18.64312 -1.522521 -93.74659 27.17701 22.41165 0 0 -15.45244 7.215519 16.13373 5.627966
0.6448485 103.375 3.073276 0.3572636 0.1320703 0.1261996 4.480905 -20.11629 9.836459 -0 36.6094 -0 -5.466912 -15.59678 -3.521064 -6.859555 10.61495 -22.71075 -0 5.409558 -0 9.85088 -17.1981 26.64627 -3.661096 -3.199704 4.541708 3.012677 9.494717 -7.974513 1.360156 21.70026 7.012101 2.847221 -25.56862 9.979736 6.219619 -19.93245 11.70998 85.73412 35.96225 -19.14542 -0 0 16.04267 -6.706419 8.546981 4.700069 5.505849 -19.47422 -1.347438 -93.62628 26.77782 22.13995 0 0 -16.47114 8.398563 16.08413 4.888195
0.9631348 103.1054 4.897746 -0.1827138 0.9972699 0.1616304 5.591149 -23.64079 9.934682 -0 33.3546 -0 -5.479014 -14.25848 -3.304187 -6.563511 10.7437 -22.18328 -0 5.533084 -0 9.323117 -18.5825 26.28277 -3.168175 -2.769502 4.754598 2.982929 9.445813 -8.003081 1.589721 21.2212 7.093923 3.071284 -26.14906 10.23453 6.013725 -19.89797 11.58805 85.96081 35.78472 -19.58643 -0 0 16.06309 -6.520724 8.751859 4.29565 6.211914 -20.12229 -1.055007 -93.65185 26.64346 22.01584 0 0 -17.72058 9.108769 16.11784 4.605466
1.26639 102.6888 6.995478 -0.6963608 1.925925 0.2149902 6.718368 -27.15712 9.949933 -0 29.64536 -0 -5.481807 -12.66431 -3.051185 -6.266711 11.089 -21.55448 -0 5.900818 -0 8.531618 -20.03752 25.69056 -2.703372 -2.358405 4.894912 2.974149 9.341297 -8.046656 1.792818 20.74519 7.213914 3.330142 -26.68262 10.46622 5.813635 -19.73155 11.43677 86.24262 35.67173 -20.14826 -0 0 15.84448 -6.422974 9.008425 3.917456 6.938284 -20.78371 -0.7524655 -93.56688 26.55092 21.70111 0 0 -19.15817 9.667254 16.11714 4.395256
1.545431 102.1454 9.457027 -1.163848 2.880966 0.320148 7.789968 -30.43191 9.852373 -0 25.75437 -0 -5.516333 -10.76173 -2.755952 -5.978596 11.65798 -20.8259 -0 6.617197 -0 7.38828 -21.45671 24.78485 -2.281639 -1.990706 4.93102 2.985574 9.184624 -8.108542 1.944131 20.28864 7.382331 3.630896 -27.1265 10.64511 5.652771 -19.41263 11.26246 86.56486 35.66589 -20.82186 -0 0 15.3725 -6.433502 9.310643 3.592267 7.633119 -21.41964 -0.4648532 -93.38856 26.52279 21.23777 0 0 -20.68143 9.978399 16.05827 4.331098
1.791317 101.5118 12.39629 -1.584713 3.774758 0.5245381 8.690508 -33.22997 9.534066 -0 22.03388 -0 -5.682972 -8.485163 -2.419625 -5.688959 12.4883 -19.94983 -0 7.820152 -0 5.761946 -22.68983 23.41169 -1.895151 -1.672643 4.801853 3.011387 8.974111 -8.184782 2.022216 19.89877 7.600514 3.948918 -27.4359 10.75572 5.499042 -18.90688 11.05455 86.96775 35.6941 -21.58747 -0 0 14.5659 -6.602773 9.619646 3.367814 8.220794 -21.99669 -0.2359015 -93.0666 26.55822 20.5759 0 0 -22.16295 10.01132 15.90566 4.418346
1.999349 100.8463 15.93297 -1.963888 4.518325 0.878484 9.308852 -35.21864 8.935491 -0 18.87423 -0 -6.046483 -5.988038 -2.065216 -5.390983 13.53794 -18.90991 -0 9.686787 -0 3.619343 -23.47506 21.47242 -1.5302 -1.424851 4.464979 3.056595 8.711035 -8.273305 2.008109 19.62079 7.849888 4.222051 -27.58439 10.79521 5.326552 -18.21295 10.81336 87.45855 35.69929 -22.37619 -0 0 13.40515 -6.940899 9.925062 3.30255 8.591536 -22.4343 -0.0977748 -92.57553 26.63392 19.72003 0 0 -23.41384 9.762634 15.61803 4.642593
2.172273 100.2306 20.16947 -2.318471 5.002183 1.416804 9.57551 -36.01962 8.052694 -0 16.68527 -0 -6.653583 -3.641018 -1.740158 -5.068331 14.66988 -17.69633 -0 12.45023 -0 1.066839 -23.4401 18.96005 -1.15247 -1.26758 3.903457 3.128334 8.413613 -8.375387 1.886261 19.50177 8.084454 4.35389 -27.55881 10.76033 5.098385 -17.37231 10.55278 88.03424 35.60409 -23.0769 -0 0 11.92907 -7.426086 10.21278 3.461995 8.616334 -22.63641 -0.08133223 -91.89476 26.68785 18.69866 0 0 -24.20788 9.298542 15.14927 4.934863
2.323298 99.77391 25.14871 -2.673491 5.105586 2.122985 9.540139 -35.30136 7.006032 -0 15.78801 -0 -7.502883 -2.033944 -1.521034 -4.690142 15.59115 -16.32259 -0 16.42617 -0 -1.588045 -22.16744 16.05709 -0.6986668 -1.206639 3.169462 3.221108 8.137787 -8.492329 1.653238 19.57143 8.230471 4.249085 -27.3536 10.63039 4.793547 -16.49362 10.31312 88.66353 35.34542 -23.5493 -0 0 10.29931 -7.996929 10.46254 3.882694 8.195476 -22.52924 -0.2122693 -91.05644 26.62631 17.6165 0 0 -24.32656 8.753414 14.47846 5.194473
2.474628 99.60909 30.80078 -3.040272 4.705448 2.881036 9.388902 -32.93836 6.035782 -0 16.23887 -0 -8.523945 -1.788326 -1.497334 -4.212986 15.82342 -14.84792 -0 22.04416 -0 -3.902909 -19.38813 13.17909 -0.08546983 -1.204561 2.433305 3.28611 7.993832 -8.605469 1.336648 19.82351 8.207584 3.89466 -26.94337 10.35067 4.447352 -15.74934 10.16274 89.27102 34.92621 -23.66773 -0 0 8.838846 -8.584545 10.65663 4.509879 7.345106 -22.13107 -0.5136203 -90.20561 26.36854 16.69791 0 0 -23.64653 8.281432 13.67195 5.356187
2.648789 99.87371 36.90741 -3.361564 3.712286 3.452986 9.303725 -29.13215 5.353009 -0 17.6358 -0 -9.573624 -3.132876 -1.696305 -3.622667 14.75208 -13.39826 -0 29.76267 -0 -5.537921 -15.28101 10.88714 0.7173813 -1.156518 2.000593 3.207537 8.128766 -8.638686 1.014017 20.20901 7.97859 3.458723 -26.25123 9.840718 4.196351 -15.31509 10.17661 89.71365 34.49326 -23.37491 -0 0 7.978208 -9.187455 10.81205 5.154432 6.279758 -21.60824 -1.004042 -89.62369 25.91085 16.27164 0 0 -22.23734 7.966803 12.93537 5.460514
2.856671 100.6561 43.13595 -3.445456 2.156246 3.564196 9.204119 -24.29942 4.913753 -0 19.05356 -0 -10.45049 -5.508252 -1.973714 -3.030263 11.82854 -12.13625 -0 39.61832 -0 -6.471638 -10.68768 9.659405 1.530387 -0.9221376 2.212857 2.848209 8.626657 -8.439467 0.7992311 20.67229 7.5956 3.261669 -25.18976 9.065814 4.231545 -15.25395 10.38299 89.79298 34.33098 -22.69209 -0 0 8.005291 -9.927801 10.99336 5.585 5.368284 -21.21898 -1.65581 -89.59276 25.34356 16.58655 0 0 -20.40622 7.770574 12.54437 5.611147
3.092554 101.9089 49.16474 -3.001207 0.282187 3.125773 8.676369 -18.74121 4.398093 -0 19.32829 -0 -10.93223 -7.81923 -2.034712 -2.704162 6.900602 -11.16045 -0 50.38277 -0 -6.863044 -6.908227 9.625558 1.884471 -0.448519 3.206361 2.196273 9.357815 -7.856986 0.7701935 21.21447 7.175168 3.491068 -23.82527 8.145402 4.591348 -15.45815 10.712 89.3534 34.64806 -21.63891 -0 0 8.744956 -10.95868 11.24377 5.784429 4.887836 -21.10026 -2.302701 -90.11133 24.77644 17.52692 0 0 -18.60245 7.601309 12.59271 5.796509
3.338367 103.3933 54.8246 -1.885847 -1.513198 2.379937 7.385078 -12.561 3.554293 -0 17.75562 -0 -10.91105 -9.388396 -1.699158 -2.826292 0.4558354 -10.40561 -0 59.23561 -0 -6.73748 -4.944633 10.48172 1.32938 0.140015 4.707311 1.462465 9.982781 -6.913558 0.888164 21.88323 6.802961 3.929554 -22.44767 7.335786 5.00971 -15.76931 11.02208 88.39135 35.3089 -20.13742 -0 0 9.633526 -12.27153 11.47551 6.069977 4.797875 -21.10597 -2.665005 -90.79319 24.26121 18.58302 0 0 -17.15099 7.440855 12.80378 5.815219
3.576473 104.7408 60.13024 -0.3756857 -2.935315 1.699563 5.603756 -6.057969 2.522567 -0 14.67572 -0 -10.52432 -10.46277 -1.115232 -3.139945 -6.521795 -9.630157 -0 63.08479 -0 -6.094776 -4.79242 11.80933 -0.03180114 0.6787335 6.141295 0.9209888 10.22826 -5.857982 1.016296 22.65093 6.491506 4.182974 -21.31114 6.800024 5.141734 -16.15401 11.21831 87.00861 35.90533 -18.05779 -0 0 10.319 -13.69981 11.49413 6.780564 4.865925 -20.97044 -2.610285 -91.22775 23.7894 19.27193 0 0 -15.999 7.323025 12.75125 5.503629
3.812152 105.6015 65.19271 0.9357973 -3.922571 1.265263 4.065256 0.09537205 1.629339 -0 11.16452 -0 -10.03025 -11.64933 -0.5703557 -3.03431 -13.06624 -8.529247 -0 60.51446 -0 -5.220836 -5.612268 13.413 -1.527025 1.14567 7.029532 0.6604186 10.10194 -4.976976 1.028488 23.35365 6.241358 4.131993 -20.41402 6.454137 4.894664 -16.71064 11.31991 85.29791 36.1063 -15.38836 -0 0 11.02972 -15.12453 11.17002 7.931223 4.966267 -20.596 -2.299468 -91.39326 23.32995 19.57634 0 0 -14.80057 7.19283 12.25131 4.994996
